<svg version="1.1" id="Layer_1" xmlns="http://www.w3.org/2000/svg" xmlns:xlink="http://www.w3.org/1999/xlink" x="0px" y="0px"
	 width="100%" viewBox="0 0 1547 1536" enable-background="new 0 0 1547 1536" xml:space="preserve">
<path fill="#112F4A" opacity="1.000000" stroke="none" 
	d="
M840.000000,1537.000000 
	C798.312439,1537.000000 756.624878,1537.000000 714.269531,1536.632568 
	C690.022583,1533.104492 666.271118,1530.885864 642.894836,1526.614624 
	C556.658020,1510.857422 475.613953,1480.768433 400.098541,1436.152832 
	C294.342529,1373.670532 208.583344,1290.393799 142.711548,1186.786255 
	C70.849960,1073.757812 31.808632,949.980408 23.154301,816.520020 
	C19.878193,765.998413 22.108152,715.638672 28.798847,665.431458 
	C37.213623,602.286560 52.653534,540.963440 76.149460,481.772217 
	C131.523605,342.273102 219.362228,227.640259 341.577881,140.321808 
	C455.068329,59.237186 581.634033,12.955998 721.047119,2.704936 
	C725.383118,2.386111 729.683167,1.579303 734.000000,0.999997 
	C761.354248,1.000000 788.708435,1.000000 816.761169,1.364305 
	C823.441956,2.096599 829.429199,2.398392 835.405762,2.842871 
	C891.719788,7.030888 946.893677,17.210299 1000.862183,33.960045 
	C1089.748413,61.546902 1171.307739,103.374512 1243.646484,161.914749 
	C1421.515137,305.855316 1515.469238,493.726807 1532.671997,720.809326 
	C1537.537720,785.038330 1533.087524,848.955383 1521.165039,912.337585 
	C1501.279663,1018.051514 1462.443848,1116.109985 1401.816406,1205.060303 
	C1310.603394,1338.884644 1189.611572,1435.426758 1037.713989,1492.489624 
	C981.426025,1513.635132 923.388428,1527.844849 863.506226,1534.171875 
	C855.658813,1535.001099 847.834839,1536.051880 840.000000,1537.000000 
M330.976746,1208.351196 
	C344.816376,1222.314575 360.937378,1233.171509 378.511993,1242.136719 
	C353.167908,1244.466431 328.452698,1246.653564 303.761658,1249.086548 
	C299.345642,1249.521729 295.029816,1250.973999 290.667755,1251.956665 
	C290.690063,1252.582031 290.712372,1253.207397 290.734680,1253.832764 
	C292.823578,1254.555298 294.864929,1255.686523 297.008850,1255.935913 
	C314.860504,1258.012207 332.686920,1260.877197 350.604309,1261.709229 
	C402.860809,1264.135986 455.141205,1266.446533 507.438599,1267.523438 
	C696.071594,1271.408081 884.690857,1271.392700 1073.221436,1262.817749 
	C1096.492065,1261.759155 1119.693604,1259.087891 1142.906860,1256.945190 
	C1146.980347,1256.568970 1150.953369,1255.104004 1154.972778,1254.141968 
	C1154.957642,1253.524292 1154.942627,1252.906616 1154.927490,1252.289062 
	C1152.328247,1251.492554 1149.775391,1250.239258 1147.122681,1249.970947 
	C1123.604248,1247.591919 1100.113159,1244.387329 1076.528442,1243.329346 
	C1018.606995,1240.731201 960.640015,1239.146729 902.691833,1237.141968 
	C901.475525,1237.099854 900.264526,1236.906250 898.760132,1236.753784 
	C902.784851,1225.588745 901.462463,1215.074585 897.627747,1204.627319 
	C892.939453,1191.854370 889.515381,1178.860107 892.033447,1165.068726 
	C893.197205,1158.694702 894.538757,1152.353149 896.094727,1145.213989 
	C896.106079,1144.389038 895.933167,1143.510132 896.155945,1142.746948 
	C900.320862,1128.481445 904.529114,1114.228638 908.738525,1099.976196 
	C909.509399,1097.365723 910.325867,1094.768799 911.238892,1091.780762 
	C924.011902,1099.577148 936.286011,1106.917969 948.401001,1114.512695 
	C957.701416,1120.342896 963.410583,1128.759521 966.177185,1139.470581 
	C969.001160,1150.404053 971.834900,1161.409790 975.798096,1171.957764 
	C982.708740,1190.350098 997.423401,1198.964844 1016.980835,1197.400635 
	C1032.696167,1196.143677 1047.842407,1192.408325 1062.538208,1186.897461 
	C1080.705322,1180.085083 1097.960938,1171.527344 1112.592773,1158.479858 
	C1118.789795,1152.953857 1123.492798,1146.402710 1125.104614,1137.981445 
	C1127.404175,1125.966675 1122.362183,1116.457520 1114.609863,1108.119995 
	C1101.567871,1094.093506 1091.112549,1078.406738 1082.994629,1061.090698 
	C1076.543823,1047.331177 1069.157837,1034.056763 1058.809326,1022.837463 
	C1046.288818,1009.263367 1033.254395,996.163269 1020.129333,982.237793 
	C1013.032410,973.827942 1005.935425,965.418152 998.690552,956.348633 
	C996.201050,952.221558 993.256836,948.287598 991.392334,943.895203 
	C990.270935,941.253601 990.054321,937.702393 990.760559,934.894287 
	C996.110657,913.621033 1001.713928,892.409729 1007.490723,871.248108 
	C1008.033752,869.258667 1009.974609,866.903687 1011.846130,866.141296 
	C1028.091553,859.523682 1043.529663,851.470215 1058.105225,841.694824 
	C1063.207275,838.272949 1068.564941,835.185547 1074.006714,832.327881 
	C1082.282593,827.981995 1091.133057,826.012146 1100.545776,826.889404 
	C1105.184326,827.321655 1109.862915,827.997864 1114.486694,827.781311 
	C1125.404419,827.270142 1134.215088,822.733459 1138.850098,812.377747 
	C1143.402588,802.206909 1140.969971,792.785278 1134.227905,784.404663 
	C1131.210693,780.654175 1127.582397,777.399231 1124.298340,773.857361 
	C1122.809448,772.251709 1121.483154,770.495239 1120.035278,768.749451 
	C1130.846802,768.045532 1141.034302,767.936157 1151.051880,766.575439 
	C1161.244873,765.190857 1171.464844,763.245117 1181.336914,760.384888 
	C1236.785400,744.320129 1278.181396,709.886841 1306.377319,660.288147 
	C1338.707520,603.417175 1345.911499,543.230591 1323.810303,480.826904 
	C1310.376465,442.895905 1286.344727,412.492493 1254.861450,387.737854 
	C1241.504761,377.235748 1227.977539,366.907471 1215.191772,355.740173 
	C1208.903442,350.247925 1203.429443,343.479095 1198.856079,336.460846 
	C1193.900146,328.855194 1194.479980,320.364594 1198.792358,312.202057 
	C1200.645874,308.693848 1202.503418,305.058624 1203.510498,301.256317 
	C1206.732056,289.093353 1199.450073,278.265564 1187.055664,276.449890 
	C1184.437744,276.066376 1181.709961,275.950958 1179.082275,276.210785 
	C1172.653564,276.846405 1168.363159,274.015808 1164.961792,268.789886 
	C1162.248657,264.621368 1159.363159,260.434723 1155.882935,256.921021 
	C1146.728149,247.677948 1132.943848,248.068893 1124.538574,257.966156 
	C1121.380249,261.685211 1118.860107,266.262665 1117.172974,270.861115 
	C1109.021973,293.079254 1107.214966,315.922577 1111.488892,339.224426 
	C1116.119141,364.469208 1128.806763,385.709015 1145.789307,404.192749 
	C1158.717773,418.264099 1173.390381,430.721344 1187.067749,444.120667 
	C1195.022949,451.914185 1203.399780,459.501038 1210.090088,468.316833 
	C1225.316528,488.380920 1230.430664,511.014984 1223.939087,535.769104 
	C1220.068970,550.525879 1212.801880,563.196167 1200.549561,572.594116 
	C1180.976807,587.607056 1152.783569,586.585144 1131.826904,568.891296 
	C1123.177124,561.588196 1116.246460,552.143799 1109.039551,543.263062 
	C1099.817505,531.899231 1092.047607,519.226685 1082.018433,508.669769 
	C1025.769409,449.459717 956.952576,428.641632 877.411011,445.275909 
	C835.607666,454.018127 799.253418,474.233307 769.238281,505.045807 
	C766.571960,507.782959 764.562561,508.055206 761.165588,506.423157 
	C755.484802,503.694031 749.560913,501.370697 743.563416,499.416473 
	C694.161194,483.319183 646.833923,486.923859 603.093140,516.246826 
	C564.100403,542.386841 542.886841,580.146423 534.942566,625.872681 
	C534.471741,628.583008 534.515930,630.925232 530.853699,632.284058 
	C440.309174,665.877991 382.476379,729.518433 357.055878,822.577637 
	C353.204193,836.677917 350.768097,851.161255 347.056244,865.304504 
	C344.325928,875.707886 339.160736,885.089844 331.861115,893.108582 
	C317.060455,909.367310 296.840546,911.141968 280.055969,897.911133 
	C277.468536,895.871460 276.740479,894.107788 277.962830,890.812012 
	C282.459595,878.687500 281.134827,866.874390 274.763458,855.719543 
	C271.179749,849.445129 265.915527,844.872559 258.723724,841.285095 
	C259.169586,846.153442 259.526428,850.049988 260.010010,855.330322 
	C246.221039,845.924683 236.046173,835.355286 231.274338,820.017639 
	C230.698624,820.523621 230.250107,820.756836 230.039825,821.125854 
	C221.536713,836.047729 217.735046,851.959717 220.117828,869.122314 
	C223.085724,890.499329 236.802338,904.719482 256.741730,906.676208 
	C260.475098,907.042603 263.265411,908.173889 265.964142,910.680664 
	C292.345581,935.185181 325.968475,927.948303 345.420715,908.262939 
	C346.481659,907.189270 347.568054,906.140869 348.637146,905.086060 
	C350.663147,918.856812 351.807373,932.182251 354.712708,945.111938 
	C359.341339,965.711121 364.990234,986.087769 370.483124,1006.484375 
	C379.222717,1038.936890 374.880371,1069.104248 355.659943,1096.980591 
	C346.776825,1109.864014 338.236969,1122.985840 329.640076,1136.064331 
	C325.620544,1142.179321 321.615356,1148.322632 317.989594,1154.673462 
	C310.615173,1167.590332 311.508118,1180.679810 318.817627,1193.153687 
	C321.959076,1198.514648 326.676758,1202.951904 330.976746,1208.351196 
z"/>
<path fill="#E8F2FC" opacity="1.000000" stroke="none" 
	d="
M1020.442261,982.858032 
	C1033.254395,996.163269 1046.288818,1009.263367 1058.809326,1022.837463 
	C1069.157837,1034.056763 1076.543823,1047.331177 1082.994629,1061.090698 
	C1091.112549,1078.406738 1101.567871,1094.093506 1114.609863,1108.119995 
	C1122.362183,1116.457520 1127.404175,1125.966675 1125.104614,1137.981445 
	C1123.492798,1146.402710 1118.789795,1152.953857 1112.592773,1158.479858 
	C1097.960938,1171.527344 1080.705322,1180.085083 1062.538208,1186.897461 
	C1047.842407,1192.408325 1032.696167,1196.143677 1016.980835,1197.400635 
	C997.423401,1198.964844 982.708740,1190.350098 975.798096,1171.957764 
	C971.834900,1161.409790 969.001160,1150.404053 966.177185,1139.470581 
	C963.410583,1128.759521 957.701416,1120.342896 948.401001,1114.512695 
	C936.286011,1106.917969 924.011902,1099.577148 911.238892,1091.780762 
	C910.325867,1094.768799 909.509399,1097.365723 908.738525,1099.976196 
	C904.529114,1114.228638 900.320862,1128.481445 896.155945,1142.746948 
	C895.933167,1143.510132 896.106079,1144.389038 895.543518,1145.583008 
	C892.408508,1145.631226 889.812073,1145.388550 887.243958,1144.971191 
	C883.624634,1144.383057 880.026367,1143.665527 876.364136,1142.622070 
	C878.628418,1133.231323 880.947632,1124.221558 883.476196,1114.906738 
	C887.545410,1100.474365 891.405273,1086.347290 895.472961,1071.911255 
	C898.874390,1058.473633 902.067932,1045.344849 905.469849,1031.898804 
	C908.848022,1017.472290 911.981323,1003.354736 915.205261,989.257935 
	C916.556702,983.349060 919.787109,980.553528 924.190063,981.190186 
	C928.978882,981.882629 931.486755,985.604309 931.106323,991.564026 
	C930.925415,994.397034 930.633057,997.222900 930.391174,1000.052002 
	C944.161072,983.978821 955.074585,966.441040 963.503174,947.000793 
	C963.893372,945.913452 964.065063,945.069946 964.457397,944.087891 
	C964.784241,943.632385 964.890259,943.315369 965.064331,942.819214 
	C965.132324,942.640198 965.143738,942.257385 965.427734,942.024414 
	C968.171387,935.877686 970.981750,930.080750 972.999573,924.019958 
	C975.382202,916.863220 977.079712,909.478394 979.352661,902.021729 
	C979.728638,901.241699 979.826294,900.632324 979.966919,899.798279 
	C980.009888,899.573608 980.053162,899.118164 980.357483,898.893311 
	C982.782349,889.935425 984.902893,881.202393 986.894592,872.999695 
	C972.247192,872.999695 958.508240,873.479858 944.825317,872.812317 
	C937.120789,872.436462 929.443787,870.437805 921.886047,868.622253 
	C918.759888,867.871338 915.781677,865.918335 916.237976,861.621521 
	C916.715637,857.123962 919.291748,854.847839 923.575317,854.248291 
	C924.718872,854.088257 925.893616,854.151428 927.418884,854.283447 
	C952.892761,857.914795 977.610046,856.741028 1001.718079,848.246704 
	C1020.714722,841.553406 1037.968262,831.548157 1054.769409,820.619873 
	C1065.803711,813.442505 1077.725830,808.239441 1091.054199,807.678467 
	C1097.828125,807.393372 1104.651611,808.434387 1111.458740,808.736694 
	C1115.487793,808.915588 1119.470825,808.191956 1120.803955,803.761475 
	C1122.164062,799.240234 1120.376953,795.528625 1116.139038,793.304871 
	C1113.341675,791.836975 1110.452637,790.516052 1107.521484,789.335938 
	C1091.976074,783.077942 1079.397461,772.965149 1069.058105,759.917725 
	C1066.397095,756.559631 1063.778564,753.167847 1061.322754,750.024719 
	C1055.733032,753.595581 1050.601807,757.261169 1045.103638,760.251953 
	C1041.326416,762.306824 1037.481812,761.389404 1035.122437,757.485962 
	C1032.761475,753.579712 1034.352783,750.229553 1037.765015,748.016663 
	C1048.334595,741.162170 1055.148315,731.751099 1058.315430,719.562500 
	C1059.264648,715.909058 1061.999268,713.946045 1065.830566,714.411194 
	C1069.755981,714.887756 1072.235229,717.330505 1072.572388,721.303528 
	C1072.750977,723.407166 1072.307983,725.614380 1071.854370,727.711792 
	C1070.211426,735.307617 1070.172607,735.281738 1077.197021,738.845093 
	C1093.596802,747.164429 1111.379395,748.694397 1129.251587,748.630798 
	C1163.277344,748.509583 1195.288086,739.498718 1223.126953,720.265198 
	C1292.298218,672.475586 1323.873047,606.548218 1313.968140,522.231689 
	C1311.504150,501.256927 1304.955688,481.305878 1294.219849,462.529053 
	C1293.132690,460.451141 1292.185913,458.692108 1291.156494,456.982666 
	C1276.227051,432.187836 1255.805176,412.620239 1233.178467,394.927429 
	C1218.645752,383.563629 1204.265747,371.835266 1191.048950,359.002014 
	C1175.579956,343.982025 1169.695801,321.144989 1182.557739,301.133850 
	C1185.139526,297.116913 1184.118042,295.809113 1178.792114,295.806671 
	C1166.323242,295.800995 1156.609985,290.824310 1149.764893,280.311554 
	C1148.133911,277.806763 1146.392822,275.336884 1144.418701,273.101410 
	C1141.864136,270.208557 1139.166382,270.091156 1137.434692,273.927521 
	C1135.523315,278.162170 1133.437622,282.425079 1132.331665,286.899109 
	C1124.798706,317.376953 1129.292358,346.029144 1146.110229,372.613922 
	C1159.104126,393.154053 1176.964355,409.207458 1195.013306,425.034485 
	C1215.464966,442.968292 1234.601929,461.822815 1242.656982,489.406281 
	C1246.479370,503.633301 1246.798218,517.699402 1245.486450,532.091736 
	C1251.231689,533.364319 1256.753662,534.484802 1262.221069,535.826538 
	C1267.960083,537.234802 1270.564575,540.393921 1269.756836,544.588135 
	C1268.930054,548.881958 1265.687378,550.471863 1259.434326,549.708130 
	C1254.808594,549.143250 1250.163818,548.719727 1245.551270,548.065857 
	C1242.663696,547.656494 1241.143921,548.500305 1239.922363,551.390015 
	C1237.533447,557.041687 1234.812500,562.606079 1231.650391,567.858215 
	C1229.754028,571.007996 1229.622437,572.861755 1232.596924,575.334106 
	C1238.357056,580.122009 1243.932007,585.158691 1249.303345,590.380798 
	C1253.769897,594.723328 1252.830200,601.170898 1247.516357,602.305115 
	C1245.168335,602.806274 1241.895752,601.747192 1239.831421,600.283875 
	C1233.725708,595.955750 1227.852051,591.257507 1222.210693,586.333923 
	C1219.142578,583.656128 1217.223511,584.085327 1214.258667,586.565918 
	C1210.330322,589.852600 1205.912231,592.671082 1201.377930,595.074646 
	C1198.396729,596.654846 1197.790894,598.155823 1198.722412,601.298889 
	C1201.512573,610.713745 1204.027222,620.211609 1206.556152,629.701965 
	C1207.653931,633.821838 1207.027832,637.516785 1202.531982,639.168579 
	C1198.120728,640.789246 1195.657227,638.016724 1193.841919,634.524292 
	C1193.001343,632.907471 1192.332886,631.180908 1191.766968,629.445251 
	C1189.238770,621.690918 1186.505737,613.987427 1184.406616,606.116211 
	C1183.410034,602.379456 1181.836792,601.481750 1178.166138,601.867554 
	C1173.400391,602.368347 1168.534058,602.400269 1163.750488,602.067139 
	C1160.628296,601.849792 1159.105347,602.893616 1158.296387,605.708008 
	C1155.815308,614.338440 1153.181152,622.926392 1150.816650,631.588196 
	C1149.901123,634.941956 1150.236450,638.802795 1148.712036,641.769775 
	C1147.589844,643.953796 1144.358154,646.290039 1142.091309,646.265442 
	C1140.219116,646.245117 1138.047363,643.077393 1136.667603,640.888733 
	C1135.927856,639.715271 1136.363647,637.628967 1136.635864,636.016541 
	C1138.736328,623.580811 1140.926514,611.160217 1142.965210,599.445740 
	C1134.592163,594.069153 1125.522583,589.111389 1117.450684,582.864197 
	C1104.502808,572.843323 1095.887085,559.002258 1086.678589,545.686340 
	C1047.738647,489.376984 993.271545,460.891479 925.442932,459.557220 
	C881.931824,458.701324 842.189758,472.785828 806.963562,498.596313 
	C798.711304,504.642792 791.185974,511.681366 782.972717,518.559448 
	C784.818542,520.150330 785.803772,520.981201 786.769226,521.834534 
	C796.488403,530.424683 806.429871,538.781067 815.825623,547.711731 
	C820.493164,552.148132 824.446716,557.435608 828.183777,562.719604 
	C831.216187,567.007263 830.067200,572.043030 826.285767,574.669617 
	C822.668396,577.182251 818.046631,576.400574 814.680298,572.674866 
	C813.899536,571.810791 813.227051,570.849731 812.466248,569.966553 
	C776.840820,528.610107 732.069397,507.572327 677.209717,510.985199 
	C640.296997,513.281555 609.623657,529.756592 586.115723,558.066284 
	C558.509216,591.311646 548.856995,630.036194 555.367004,672.640381 
	C559.617859,700.459778 569.955750,725.786926 587.585022,748.032043 
	C601.717224,765.864380 619.852173,778.678223 638.910400,790.482788 
	C660.746216,804.007874 679.169922,821.041260 692.938904,842.937134 
	C696.384521,848.416504 700.295044,853.672729 704.507324,858.589905 
	C736.324097,895.731567 789.877136,897.600647 824.412598,862.966614 
	C841.073120,846.258545 849.231689,825.411621 853.955688,802.880188 
	C855.388733,796.045410 856.321228,789.104797 857.789062,782.278503 
	C858.633118,778.353394 861.360840,776.257568 865.523987,776.945496 
	C869.443909,777.593262 871.068665,780.235291 871.013733,784.084717 
	C870.994812,785.412598 871.104614,786.742310 871.091064,788.513855 
	C869.768005,815.009705 863.623901,839.487854 849.228943,861.720459 
	C814.872742,914.782715 743.890198,923.634521 698.345459,879.783752 
	C689.679688,871.440247 682.759949,861.192566 675.570923,851.428650 
	C666.445984,839.035522 657.147461,826.843567 644.417114,817.917725 
	C633.513123,810.272461 622.178772,803.243347 611.222107,795.670593 
	C567.188049,765.236084 542.232849,723.102539 534.831055,670.329285 
	C534.033386,664.641907 533.677673,658.892639 533.065491,652.647583 
	C530.651917,653.698975 528.842163,654.487366 526.684814,655.322876 
	C478.962341,674.468079 440.748749,705.123718 412.162415,747.355591 
	C379.774353,795.203918 366.515869,848.536560 369.318268,905.938232 
	C369.874512,917.331787 372.440216,928.627258 374.051697,940.319092 
	C374.347382,941.780090 374.670624,942.890076 374.977692,944.408386 
	C375.177429,945.959045 375.326843,947.118713 375.619080,948.241089 
	C380.566223,967.241333 385.978180,986.133850 390.391876,1005.256775 
	C397.801270,1037.359009 395.588501,1068.498169 378.598267,1097.534546 
	C373.389862,1106.435791 367.524231,1114.953491 361.925507,1123.624878 
	C353.438629,1136.769775 344.832031,1149.838379 336.452240,1163.051147 
	C331.491180,1170.873413 332.615021,1178.734985 337.715912,1185.971069 
	C340.737640,1190.257935 344.509125,1194.016235 347.617310,1198.163696 
	C341.433899,1200.920410 334.692383,1201.978271 330.678345,1207.808838 
	C326.676758,1202.951904 321.959076,1198.514648 318.817627,1193.153687 
	C311.508118,1180.679810 310.615173,1167.590332 317.989594,1154.673462 
	C321.615356,1148.322632 325.620544,1142.179321 329.640076,1136.064331 
	C338.236969,1122.985840 346.776825,1109.864014 355.659943,1096.980591 
	C374.880371,1069.104248 379.222717,1038.936890 370.483124,1006.484375 
	C364.990234,986.087769 359.341339,965.711121 354.712708,945.111938 
	C351.807373,932.182251 350.663147,918.856812 348.637146,905.086060 
	C347.568054,906.140869 346.481659,907.189270 345.420715,908.262939 
	C325.968475,927.948303 292.345581,935.185181 265.964142,910.680664 
	C263.265411,908.173889 260.475098,907.042603 256.741730,906.676208 
	C236.802338,904.719482 223.085724,890.499329 220.117828,869.122314 
	C217.735046,851.959717 221.536713,836.047729 230.039825,821.125854 
	C230.250107,820.756836 230.698624,820.523621 231.274338,820.017639 
	C236.046173,835.355286 246.221039,845.924683 260.010010,855.330322 
	C259.526428,850.049988 259.169586,846.153442 258.723724,841.285095 
	C265.915527,844.872559 271.179749,849.445129 274.763458,855.719543 
	C281.134827,866.874390 282.459595,878.687500 277.962830,890.812012 
	C276.740479,894.107788 277.468536,895.871460 280.055969,897.911133 
	C296.840546,911.141968 317.060455,909.367310 331.861115,893.108582 
	C339.160736,885.089844 344.325928,875.707886 347.056244,865.304504 
	C350.768097,851.161255 353.204193,836.677917 357.055878,822.577637 
	C382.476379,729.518433 440.309174,665.877991 530.853699,632.284058 
	C534.515930,630.925232 534.471741,628.583008 534.942566,625.872681 
	C542.886841,580.146423 564.100403,542.386841 603.093140,516.246826 
	C646.833923,486.923859 694.161194,483.319183 743.563416,499.416473 
	C749.560913,501.370697 755.484802,503.694031 761.165588,506.423157 
	C764.562561,508.055206 766.571960,507.782959 769.238281,505.045807 
	C799.253418,474.233307 835.607666,454.018127 877.411011,445.275909 
	C956.952576,428.641632 1025.769409,449.459717 1082.018433,508.669769 
	C1092.047607,519.226685 1099.817505,531.899231 1109.039551,543.263062 
	C1116.246460,552.143799 1123.177124,561.588196 1131.826904,568.891296 
	C1152.783569,586.585144 1180.976807,587.607056 1200.549561,572.594116 
	C1212.801880,563.196167 1220.068970,550.525879 1223.939087,535.769104 
	C1230.430664,511.014984 1225.316528,488.380920 1210.090088,468.316833 
	C1203.399780,459.501038 1195.022949,451.914185 1187.067749,444.120667 
	C1173.390381,430.721344 1158.717773,418.264099 1145.789307,404.192749 
	C1128.806763,385.709015 1116.119141,364.469208 1111.488892,339.224426 
	C1107.214966,315.922577 1109.021973,293.079254 1117.172974,270.861115 
	C1118.860107,266.262665 1121.380249,261.685211 1124.538574,257.966156 
	C1132.943848,248.068893 1146.728149,247.677948 1155.882935,256.921021 
	C1159.363159,260.434723 1162.248657,264.621368 1164.961792,268.789886 
	C1168.363159,274.015808 1172.653564,276.846405 1179.082275,276.210785 
	C1181.709961,275.950958 1184.437744,276.066376 1187.055664,276.449890 
	C1199.450073,278.265564 1206.732056,289.093353 1203.510498,301.256317 
	C1202.503418,305.058624 1200.645874,308.693848 1198.792358,312.202057 
	C1194.479980,320.364594 1193.900146,328.855194 1198.856079,336.460846 
	C1203.429443,343.479095 1208.903442,350.247925 1215.191772,355.740173 
	C1227.977539,366.907471 1241.504761,377.235748 1254.861450,387.737854 
	C1286.344727,412.492493 1310.376465,442.895905 1323.810303,480.826904 
	C1345.911499,543.230591 1338.707520,603.417175 1306.377319,660.288147 
	C1278.181396,709.886841 1236.785400,744.320129 1181.336914,760.384888 
	C1171.464844,763.245117 1161.244873,765.190857 1151.051880,766.575439 
	C1141.034302,767.936157 1130.846802,768.045532 1120.035278,768.749451 
	C1121.483154,770.495239 1122.809448,772.251709 1124.298340,773.857361 
	C1127.582397,777.399231 1131.210693,780.654175 1134.227905,784.404663 
	C1140.969971,792.785278 1143.402588,802.206909 1138.850098,812.377747 
	C1134.215088,822.733459 1125.404419,827.270142 1114.486694,827.781311 
	C1109.862915,827.997864 1105.184326,827.321655 1100.545776,826.889404 
	C1091.133057,826.012146 1082.282593,827.981995 1074.006714,832.327881 
	C1068.564941,835.185547 1063.207275,838.272949 1058.105225,841.694824 
	C1043.529663,851.470215 1028.091553,859.523682 1011.846130,866.141296 
	C1009.974609,866.903687 1008.033752,869.258667 1007.490723,871.248108 
	C1001.713928,892.409729 996.110657,913.621033 990.760559,934.894287 
	C990.054321,937.702393 990.270935,941.253601 991.392334,943.895203 
	C993.256836,948.287598 996.201050,952.221558 998.429016,956.743652 
	C994.442383,959.190918 991.540039,962.966003 986.396240,961.962158 
	C984.147522,961.523315 981.684326,962.183960 979.018433,962.292664 
	C977.420288,964.311951 975.986572,966.312073 974.845154,968.467041 
	C963.419556,990.036743 950.139404,1010.390137 933.094727,1027.906250 
	C926.496887,1034.686646 922.462646,1041.932129 921.113708,1051.134888 
	C920.272156,1056.875366 918.456238,1062.469482 917.509155,1068.200562 
	C917.261780,1069.697632 918.148193,1072.149170 919.338806,1072.979126 
	C923.688538,1076.011353 928.386719,1078.543823 933.132202,1081.541016 
	C940.859009,1086.700562 948.268799,1091.815674 955.983276,1096.420044 
	C973.353760,1106.787720 983.648071,1121.739868 987.304260,1141.694702 
	C988.732666,1149.490601 991.388855,1157.137207 994.191528,1164.586304 
	C997.649963,1173.778320 1004.938293,1178.306519 1014.614563,1177.225708 
	C1024.164795,1176.159180 1033.572998,1173.855469 1043.066162,1172.226196 
	C1046.817383,1171.582397 1047.626587,1169.787842 1046.449341,1166.288696 
	C1045.719116,1164.118164 1045.590332,1161.708008 1045.430908,1159.388916 
	C1044.806885,1150.298340 1048.575439,1143.642578 1055.299316,1141.759521 
	C1060.869385,1140.199707 1067.365112,1142.852051 1071.686401,1148.796509 
	C1073.814331,1151.723755 1075.485718,1154.982910 1077.615723,1158.509155 
	C1081.029663,1156.536865 1084.270020,1154.664795 1087.769775,1152.642944 
	C1086.709961,1150.525391 1085.603271,1148.987061 1085.145020,1147.275391 
	C1083.618530,1141.573486 1081.476318,1135.853882 1081.170166,1130.056641 
	C1080.834595,1123.708252 1086.181641,1119.132202 1092.269409,1118.873657 
	C1093.693726,1118.813110 1095.122803,1118.864868 1097.303467,1118.864868 
	C1096.257935,1117.344360 1095.715332,1116.378174 1095.008057,1115.552979 
	C1083.014160,1101.560669 1072.979614,1086.330688 1065.432495,1069.469360 
	C1057.584351,1051.935303 1046.468994,1036.711548 1032.880737,1023.133118 
	C1022.407532,1012.667419 1012.435913,1001.699707 1002.616577,990.983276 
	C1007.557617,992.751343 1010.745178,991.393982 1013.619019,987.360046 
	C1015.093872,985.289734 1018.118225,984.323364 1020.442261,982.858032 
z"/>
<path fill="#E6F1FA" opacity="1.000000" stroke="none" 
	d="
M330.827515,1208.080078 
	C334.692383,1201.978271 341.433899,1200.920410 347.926788,1198.298096 
	C354.210205,1202.788696 359.857971,1207.296143 364.127502,1210.703613 
	C370.527039,1205.837891 375.337280,1200.797485 381.218079,1198.041748 
	C389.508392,1194.156982 397.667511,1199.827881 398.013794,1208.992065 
	C398.166748,1213.040283 397.145142,1217.179321 396.297455,1221.201294 
	C395.800354,1223.559692 394.596069,1225.769043 393.591827,1228.348755 
	C395.493469,1229.183838 397.061981,1229.716675 398.474487,1230.522705 
	C402.257782,1232.681885 404.692810,1232.245972 406.350983,1227.708252 
	C407.407562,1224.816895 409.394257,1222.160400 411.369080,1219.727417 
	C421.004181,1207.857056 433.653320,1210.633545 437.134705,1222.851685 
	C437.198578,1223.075806 437.575775,1223.210571 438.408051,1223.846436 
	C440.289703,1218.703003 442.233551,1213.823975 443.865967,1208.842773 
	C448.091339,1195.949341 453.945251,1183.900024 462.034546,1173.282715 
	C466.998749,1177.417480 471.902924,1181.205811 476.802185,1185.337891 
	C465.219635,1201.956177 461.651520,1221.603516 453.700562,1239.836304 
	C487.730865,1238.897583 521.349121,1237.970215 555.227539,1237.035522 
	C543.080566,1206.227661 531.205505,1176.109497 519.739990,1145.992920 
	C527.246704,1146.619263 534.343750,1147.244019 541.651062,1148.134033 
	C544.180664,1153.914795 546.720764,1159.349365 548.778442,1164.960693 
	C555.300781,1182.747070 561.535339,1200.639282 568.089355,1218.413696 
	C573.165771,1232.180786 579.019104,1236.041626 593.611267,1235.899536 
	C595.273926,1235.883423 596.975159,1235.999390 598.591919,1235.697510 
	C616.208374,1232.406372 633.940063,1229.585449 651.358704,1225.450317 
	C658.938904,1223.650757 666.282898,1219.782471 672.984558,1215.640625 
	C680.573242,1210.950806 681.613647,1204.509766 677.573975,1196.650513 
	C676.284241,1194.140991 674.718201,1191.774902 673.312256,1189.323730 
	C668.856934,1181.556763 664.417603,1173.780518 660.321045,1165.951538 
	C664.744202,1162.388794 669.046326,1159.641235 674.832458,1161.166138 
	C676.223328,1161.532715 677.710327,1161.534302 679.422852,1161.886230 
	C680.133667,1163.044312 680.574768,1164.019775 680.676147,1165.090576 
	C678.444397,1168.342041 675.900574,1171.136230 678.750061,1175.348877 
	C680.458313,1177.874390 681.644531,1181.169678 681.851990,1184.202026 
	C682.220886,1189.595947 684.673645,1193.423950 689.085327,1195.904907 
	C692.226868,1197.671631 695.803406,1198.664795 699.402344,1200.361816 
	C701.625366,1216.867920 692.928772,1227.169189 679.221558,1235.645264 
	C700.974976,1235.645264 721.327209,1235.645264 742.388977,1235.645264 
	C738.096497,1227.508179 737.230164,1219.164917 738.302185,1210.657715 
	C740.256042,1195.152100 742.733337,1179.708130 744.460632,1164.179443 
	C746.849670,1142.700684 748.791382,1121.171143 750.757385,1099.648193 
	C750.891479,1098.180176 749.628357,1096.584595 749.015747,1094.648193 
	C750.941101,1086.354004 757.195068,1091.683838 760.802185,1090.233887 
	C762.253662,1087.851440 763.976074,1085.806885 764.765015,1083.449707 
	C765.276184,1081.922363 764.528137,1078.422729 764.165466,1078.397461 
	C761.099487,1078.185913 757.747498,1077.893066 754.943481,1078.905029 
	C746.669495,1081.891113 738.630676,1085.738403 730.047729,1080.689209 
	C731.058838,1080.028198 731.815125,1079.581909 732.947632,1079.192871 
	C738.114685,1077.864502 742.857117,1076.266357 747.712341,1075.165649 
	C751.210510,1074.372559 752.094788,1072.481445 752.036865,1069.155151 
	C751.868652,1059.498413 751.927490,1049.836670 751.998840,1040.177612 
	C752.030823,1035.848145 753.981628,1032.775024 758.510925,1032.060791 
	C762.691772,1031.401489 765.995789,1033.887329 767.291748,1038.429443 
	C767.564331,1039.384644 767.763794,1040.373901 767.871643,1041.361206 
	C772.309631,1081.972290 770.307556,1122.396973 764.569336,1162.743774 
	C762.110168,1180.034424 759.814514,1197.360107 758.023743,1214.729614 
	C756.876770,1225.854126 760.668030,1231.809204 771.274902,1235.323486 
	C779.272095,1237.973145 787.699707,1239.437988 796.023499,1240.945435 
	C801.160034,1241.875732 806.461304,1241.895996 811.331787,1242.295532 
	C812.668335,1237.394653 813.496826,1233.295776 814.911987,1229.410522 
	C817.166809,1223.220215 821.211670,1218.663818 828.272339,1218.354858 
	C834.084045,1218.100708 839.232727,1222.601562 841.707214,1229.954956 
	C843.010498,1233.827881 843.659607,1237.920776 844.644714,1242.085815 
	C845.760986,1242.085815 846.747559,1242.116821 847.731628,1242.080811 
	C855.062439,1241.812744 854.483215,1241.791016 854.708618,1234.373169 
	C854.880981,1228.698608 856.074341,1222.821045 858.062500,1217.500488 
	C860.091309,1212.071289 865.389771,1209.681641 870.658997,1210.799438 
	C873.516724,1211.405640 876.171692,1212.967041 879.008484,1214.275879 
	C879.188293,1214.182251 879.277771,1213.910156 879.368530,1213.253174 
	C878.735229,1210.814209 878.166382,1208.737305 877.455444,1206.710205 
	C872.848999,1193.574463 870.532349,1180.069214 872.107300,1166.197876 
	C872.992310,1158.403687 874.946533,1150.730835 876.419067,1143.003296 
	C880.026367,1143.665527 883.624634,1144.383057 887.243958,1144.971191 
	C889.812073,1145.388550 892.408508,1145.631226 895.395996,1145.974487 
	C894.538757,1152.353149 893.197205,1158.694702 892.033447,1165.068726 
	C889.515381,1178.860107 892.939453,1191.854370 897.627747,1204.627319 
	C901.462463,1215.074585 902.784851,1225.588745 898.760132,1236.753784 
	C900.264526,1236.906250 901.475525,1237.099854 902.691833,1237.141968 
	C960.640015,1239.146729 1018.606995,1240.731201 1076.528442,1243.329346 
	C1100.113159,1244.387329 1123.604248,1247.591919 1147.122681,1249.970947 
	C1149.775391,1250.239258 1152.328247,1251.492554 1154.927490,1252.289062 
	C1154.942627,1252.906616 1154.957642,1253.524292 1154.972778,1254.141968 
	C1150.953369,1255.104004 1146.980347,1256.568970 1142.906860,1256.945190 
	C1119.693604,1259.087891 1096.492065,1261.759155 1073.221436,1262.817749 
	C884.690857,1271.392700 696.071594,1271.408081 507.438599,1267.523438 
	C455.141205,1266.446533 402.860809,1264.135986 350.604309,1261.709229 
	C332.686920,1260.877197 314.860504,1258.012207 297.008850,1255.935913 
	C294.864929,1255.686523 292.823578,1254.555298 290.734680,1253.832764 
	C290.712372,1253.207397 290.690063,1252.582031 290.667755,1251.956665 
	C295.029816,1250.973999 299.345642,1249.521729 303.761658,1249.086548 
	C328.452698,1246.653564 353.167908,1244.466431 378.511993,1242.136719 
	C360.937378,1233.171509 344.816376,1222.314575 330.827515,1208.080078 
z"/>
<path fill="#EFF7FD" opacity="1.000000" stroke="none" 
	d="
M1020.285767,982.547913 
	C1018.118225,984.323364 1015.093872,985.289734 1013.619019,987.360046 
	C1010.745178,991.393982 1007.557617,992.751343 1002.328003,990.800232 
	C997.692200,986.481873 993.720215,982.374634 989.735840,977.933289 
	C986.776184,973.236755 983.829041,968.874390 980.795532,964.209045 
	C980.437561,963.593262 980.165894,963.280457 979.704834,962.854187 
	C979.515381,962.740723 979.318481,962.345337 979.318481,962.345337 
	C981.684326,962.183960 984.147522,961.523315 986.396240,961.962158 
	C991.540039,962.966003 994.442383,959.190918 998.502930,957.073547 
	C1005.935425,965.418152 1013.032410,973.827942 1020.285767,982.547913 
z"/>
<g transform="scale(0.25)">
<g transform="translate(0.000000,6144.000000) scale(0.100000,-0.100000)">
<path fill="#5E98CE" stroke="none" d="M45574 50581 c-41 -25 -59 -56 -139 -236 -86 -194 -126 -309 -163
-475 -146 -638 -157 -1240 -37 -1845 148 -738 506 -1444 1087 -2138 330 -396
727 -786 1443 -1417 462 -407 829 -764 1049 -1020 417 -485 717 -989 876
-1473 28 -87 39 -98 87 -86 76 17 82 9 7 -11 -23 -5 -44 -17 -47 -25 -4 -8 7
-81 23 -162 83 -426 108 -927 70 -1399 -9 -116 -7 -129 18 -139 9 -4 157 -38
327 -76 171 -38 333 -77 360 -85 118 -39 188 -89 229 -165 66 -121 18 -292
-99 -349 -96 -46 -174 -45 -662 15 -244 30 -263 30 -312 6 -49 -26 -57 -38
-162 -270 -50 -108 -129 -266 -177 -351 -154 -275 -159 -290 -123 -363 16 -34
61 -78 180 -181 341 -291 596 -534 634 -604 93 -172 20 -354 -155 -386 -51 -9
-149 10 -222 43 -89 41 -423 295 -715 544 -190 163 -228 164 -411 20 -122 -97
-245 -179 -400 -268 -151 -86 -185 -113 -201 -162 -14 -44 -11 -62 71 -348 38
-132 113 -402 167 -600 89 -329 98 -368 98 -450 0 -99 -11 -129 -66 -184 -40
-40 -80 -61 -148 -77 -128 -30 -224 34 -310 207 -53 105 -222 602 -336 987
-35 118 -72 226 -82 240 -41 54 -69 67 -146 65 -40 -1 -221 -4 -402 -6 -339
-4 -352 -5 -399 -46 -32 -28 -43 -60 -166 -482 -173 -592 -198 -686 -215 -820
-24 -184 -45 -241 -115 -311 -61 -61 -145 -108 -193 -108 -15 0 -40 6 -55 14
-37 19 -109 98 -152 166 -32 50 -35 61 -34 125 1 57 108 695 237 1423 18 98
21 136 13 146 -6 8 -144 96 -306 197 -614 379 -804 523 -1087 821 -195 207
-367 434 -748 988 -415 604 -677 923 -1119 1365 -287 287 -485 463 -743 661
-1155 888 -2498 1394 -4053 1528 -1104 96 -2088 -10 -3075 -331 -910 -295
-1896 -844 -2641 -1469 -254 -213 -569 -486 -582 -504 -7 -9 -10 -24 -6 -33 3
-9 216 -200 472 -425 524 -459 813 -722 921 -838 164 -177 410 -508 438 -589
53 -158 -18 -329 -169 -405 -51 -25 -73 -30 -134 -30 -131 0 -212 45 -326 182
-134 161 -302 342 -483 523 -995 994 -2139 1603 -3420 1819 -155 26 -310 46
-525 68 -172 18 -978 18 -1160 0 -1095 -107 -1973 -468 -2800 -1152 -159 -131
-542 -515 -684 -685 -767 -921 -1190 -1902 -1311 -3040 -22 -204 -31 -742 -16
-965 85 -1285 491 -2449 1188 -3410 508 -700 1109 -1225 2148 -1874 588 -368
953 -653 1371 -1070 328 -328 529 -575 802 -986 321 -483 454 -653 717 -915
292 -292 553 -479 907 -650 308 -148 626 -242 983 -291 178 -25 587 -25 768
-1 621 83 1161 315 1653 709 607 486 1053 1180 1312 2039 98 322 153 566 238
1043 69 391 80 440 113 500 51 97 149 138 272 117 89 -16 147 -55 184 -122 25
-47 28 -64 35 -203 14 -255 22 -1265 12 -1336 -5 -36 -7 -70 -5 -77 2 -6 40
-26 84 -44 43 -18 77 -34 76 -35 -2 -2 -31 5 -66 16 -65 19 -86 18 -95 -6 -9
-24 3 -41 45 -59 49 -22 46 -31 -4 -10 -63 26 -61 33 -127 -346 -23 -129 -49
-281 -59 -339 -16 -90 -19 -127 -12 -162 0 -3 35 -16 76 -29 42 -12 73 -24 71
-26 -3 -3 -30 3 -62 12 -86 25 -97 19 -134 -78 -115 -294 -311 -877 -304 -899
3 -11 20 -26 37 -33 36 -16 22 -20 -17 -5 -14 5 -32 7 -40 4 -27 -10 -446
-766 -446 -803 0 -5 8 -17 17 -27 16 -15 15 -16 -15 -9 -29 6 -37 1 -88 -47
-69 -64 -140 -155 -313 -397 -97 -137 -130 -189 -125 -204 4 -12 2 -17 -5 -13
-22 14 -161 -54 -296 -144 -280 -187 -642 -443 -658 -464 -4 -6 -5 -19 -3 -28
4 -16 2 -16 -17 -3 -28 20 -43 19 -66 -4 -15 -15 -19 -30 -15 -58 4 -38 4 -38
-6 -7 -6 18 -17 35 -25 38 -22 8 -745 -287 -778 -318 -7 -6 -19 -12 -27 -14
-8 -2 -17 -7 -20 -10 -3 -4 -42 -8 -86 -9 -96 -1 -120 -12 -133 -56 -5 -17
-10 -24 -10 -15 -1 9 -8 24 -17 32 -14 14 -68 16 -447 16 -1036 1 -1322 37
-1812 230 -271 107 -670 304 -739 367 -27 24 -90 71 -140 104 -84 57 -93 61
-133 55 l-43 -6 21 21 c18 18 19 23 7 39 -12 17 -299 262 -411 352 -32 24 -59
38 -78 38 -25 0 -28 3 -20 18 12 23 -1 45 -44 72 -30 19 -40 20 -67 11 l-32
-11 22 20 c20 19 21 23 8 48 -33 64 -603 846 -634 870 -9 7 -30 10 -52 7 -31
-5 -33 -4 -10 5 13 6 28 16 32 23 9 15 -21 66 -49 80 -21 11 -23 15 -23 36 0
15 -31 21 -51 10 -20 -10 -20 -9 -5 13 15 24 14 27 -35 99 -28 41 -75 103
-104 139 -28 36 -59 79 -68 96 -9 17 -32 45 -52 63 -30 26 -39 29 -56 20 -19
-10 -20 -9 -9 10 14 27 6 42 -79 151 -242 312 -527 572 -779 710 -45 25 -146
89 -225 143 -237 165 -472 319 -665 436 -220 133 -339 209 -452 286 -1366 934
-2259 2196 -2698 3810 -43 158 -116 468 -146 620 -122 621 -141 1035 -82 1725
31 362 33 429 16 440 -37 23 -816 -335 -1225 -565 -1374 -769 -2492 -1809
-3380 -3145 -941 -1416 -1481 -2946 -1639 -4650 -35 -368 -41 -533 -41 -1060
1 -682 6 -744 125 -1485 88 -544 83 -522 118 -601 26 -59 28 -69 15 -82 -9
-10 -12 -25 -8 -46 4 -17 91 -350 195 -741 382 -1437 455 -1750 515 -2190 37
-278 48 -446 48 -745 -1 -622 -101 -1153 -322 -1713 -148 -372 -305 -649 -778
-1372 -731 -1117 -1227 -1891 -1269 -1980 -105 -221 -96 -446 27 -685 90 -175
414 -549 603 -697 61 -48 197 -156 302 -239 208 -165 228 -179 247 -168 6 4
95 76 197 160 347 285 476 361 638 380 166 18 343 -76 431 -230 17 -30 41 -92
53 -138 18 -71 20 -101 15 -203 -9 -171 -62 -419 -120 -560 -31 -75 -42 -115
-37 -126 5 -9 31 -24 57 -34 26 -10 88 -38 137 -62 167 -80 209 -62 306 133
81 162 159 272 275 389 168 167 327 233 518 213 171 -17 325 -149 408 -350 34
-83 48 -98 77 -79 15 9 105 245 203 531 100 291 199 536 305 750 174 352 299
548 605 945 452 588 408 538 825 931 456 430 475 447 834 745 357 296 504 432
750 695 257 275 261 280 513 562 179 199 216 246 208 260 -8 15 -2 22 35 41
24 13 44 27 44 32 0 4 11 20 25 35 14 15 25 33 25 41 0 8 18 32 40 54 22 22
40 45 40 50 0 11 127 199 140 209 4 3 15 21 25 40 10 19 34 58 53 87 26 40 33
58 28 79 -5 20 -4 25 7 21 8 -3 18 -2 24 1 14 9 251 454 259 486 3 14 10 26
15 26 4 0 17 28 28 63 28 88 44 127 53 127 4 0 17 33 29 72 12 40 31 84 41 98
10 14 19 39 21 57 2 17 9 38 15 46 7 7 18 33 27 56 16 45 11 64 -24 105 -15
18 -15 18 6 7 33 -17 51 -4 67 52 53 183 173 633 266 998 59 234 118 446 130
470 61 121 146 179 262 179 131 0 232 -63 286 -178 25 -53 27 -66 26 -187 -1
-277 -97 -818 -224 -1267 -143 -503 -328 -966 -624 -1556 -139 -278 -139 -277
-68 -305 119 -48 811 -162 1282 -212 1162 -123 2568 -57 3840 181 412 77 913
178 965 194 89 28 196 59 226 65 14 2 43 16 65 31 47 32 28 26 359 115 149 39
293 78 322 86 66 18 111 49 137 93 21 34 21 52 26 720 l5 685 23 51 c47 104
141 164 270 172 66 4 78 2 137 -27 89 -44 143 -117 179 -241 26 -92 68 -554
98 -1075 17 -292 17 -1403 0 -1715 -43 -799 -100 -1381 -218 -2230 -100 -723
-176 -1311 -235 -1840 -29 -260 -29 -429 -1 -533 65 -233 210 -366 512 -469
202 -69 563 -151 952 -218 208 -35 607 -67 638 -50 10 6 24 27 29 48 63 244
94 359 116 421 98 288 257 438 500 472 137 19 270 -27 378 -130 141 -134 199
-261 277 -611 28 -122 45 -179 57 -188 14 -11 51 -13 158 -10 161 5 196 17
214 70 6 18 15 117 21 220 13 248 41 409 107 613 37 115 68 172 127 230 64 64
145 104 239 118 101 14 188 -3 328 -64 145 -64 143 -64 162 -45 14 14 13 23
-5 93 -10 43 -44 153 -74 245 -201 615 -252 1135 -169 1703 40 268 164 855
274 1290 90 359 115 470 106 478 -9 9 -8 25 8 72 11 33 26 63 32 67 7 4 17 20
23 35 17 41 192 673 347 1248 47 176 88 327 91 336 6 20 -23 52 -39 43 -7 -3
8 13 32 35 l44 41 107 428 c155 614 259 1053 253 1068 -8 22 -31 23 -60 2 -15
-11 0 7 34 42 41 40 66 75 73 99 19 72 132 561 259 1118 72 312 137 588 146
613 35 100 107 185 184 217 59 26 168 20 238 -11 90 -42 135 -93 166 -191 23
-75 26 -135 13 -299 -9 -121 -9 -152 2 -162 7 -7 19 -11 27 -8 17 7 160 182
296 364 299 399 545 800 775 1264 68 137 124 253 124 257 0 5 -6 14 -13 21
-11 10 -7 24 24 79 21 37 50 80 65 94 20 21 25 34 22 61 -2 19 -1 34 4 34 7 0
38 52 38 64 0 3 -15 19 -32 36 l-33 31 35 -20 c19 -11 41 -17 47 -13 13 8 134
272 210 455 88 216 140 381 253 807 44 168 86 316 94 330 22 41 27 99 10 131
-11 22 -11 27 -1 24 36 -15 49 20 143 389 144 569 145 574 126 593 -15 15 -67
16 -562 9 -591 -7 -1097 5 -1287 30 -237 31 -745 144 -820 183 -116 59 -158
175 -117 320 35 128 132 202 289 221 111 14 117 14 235 -4 581 -89 1264 -92
1838 -10 642 91 1213 280 1922 635 364 183 666 358 1170 679 442 281 718 410
1060 494 290 71 543 83 1013 45 334 -27 416 -23 506 22 55 29 71 43 98 88 58
97 67 218 24 315 -48 109 -155 177 -521 333 -466 198 -806 421 -1160 760 -146
140 -288 302 -480 549 -85 109 -167 211 -182 227 -33 34 -15 42 -253 -113
-209 -137 -341 -217 -428 -262 -54 -28 -72 -32 -142 -33 -58 0 -90 5 -117 19
-83 41 -164 154 -175 243 -12 108 38 187 178 283 372 255 619 580 749 985 66
205 71 216 112 261 131 142 408 83 478 -102 30 -81 27 -192 -10 -371 -57 -276
-50 -290 198 -417 439 -223 917 -343 1547 -386 207 -14 804 -15 1010 0 1188
82 2243 425 3160 1027 911 599 1733 1359 2333 2158 139 186 333 473 441 652
867 1447 1206 3111 1020 5003 -66 676 -193 1207 -430 1802 -90 227 -342 733
-374 754 -22 14 -31 14 -101 -6 -99 -27 -107 -20 -10 9 54 16 77 28 81 42 15
46 -249 468 -509 814 -392 522 -906 1050 -1517 1561 -79 66 -299 244 -489 394
-737 584 -1164 949 -1554 1329 -309 302 -499 609 -591 953 -129 485 -62 927
207 1376 58 97 74 143 58 172 -22 41 -65 52 -244 61 -265 13 -423 51 -610 147
-191 98 -358 255 -514 483 -223 326 -311 399 -408 340z m-17674 -11431 c810
-60 1687 -364 2367 -821 885 -594 1533 -1485 1942 -2672 48 -140 62 -207 43
-207 -5 0 -49 30 -98 68 -49 37 -150 113 -225 169 -795 598 -1669 977 -2579
1119 -245 38 -444 54 -735 61 -414 9 -600 -12 -1231 -137 -216 -43 -379 -80
-409 -94 -164 -74 -209 -219 -124 -396 40 -83 100 -157 156 -192 58 -35 171
-30 348 17 756 199 1476 200 2255 5 744 -186 1430 -546 2112 -1107 114 -93
128 -109 107 -112 -13 -2 -128 2 -255 9 -828 46 -1534 -89 -2239 -430 -394
-190 -899 -524 -1000 -661 -139 -189 -85 -405 130 -517 41 -22 64 -27 125 -27
65 0 84 4 140 32 36 18 108 67 160 109 506 407 1059 664 1605 748 247 37 332
41 911 40 463 -1 575 -4 596 -15 l26 -14 -195 -210 c-347 -372 -482 -533 -636
-757 -320 -467 -548 -1005 -672 -1583 -49 -234 -68 -368 -60 -434 18 -159 129
-256 304 -268 98 -7 171 13 228 62 65 56 99 136 139 331 165 804 469 1429 958
1973 121 135 384 381 407 381 17 0 37 -59 54 -160 25 -154 96 -422 159 -607
78 -224 163 -425 325 -766 163 -342 188 -414 221 -620 39 -251 28 -826 -26
-1257 -106 -851 -452 -1651 -923 -2134 -193 -197 -360 -321 -576 -427 -213
-104 -426 -168 -686 -208 -739 -113 -1356 39 -1877 462 -247 200 -579 592
-882 1042 -260 385 -425 588 -715 880 -360 362 -693 628 -1275 1015 -689 458
-1027 739 -1371 1140 -188 218 -425 586 -610 945 -288 558 -454 1085 -524
1655 -22 182 -31 616 -16 806 85 1062 488 1964 1195 2669 307 306 616 530 993
719 445 222 863 334 1418 379 95 8 391 6 515 -3z m12306 -2470 c422 -34 779
-201 1070 -501 191 -198 313 -401 401 -668 84 -255 72 -420 -38 -546 -92 -104
-267 -145 -403 -95 -42 16 -75 39 -120 84 -72 71 -109 131 -165 274 -84 210
-143 308 -258 425 -390 397 -980 376 -1352 -48 -224 -256 -295 -526 -245 -945
9 -74 14 -164 11 -200 -18 -221 -171 -362 -392 -361 -211 1 -334 152 -360 442
-4 42 -10 81 -14 87 -4 6 -133 49 -287 96 -483 146 -568 182 -670 282 -79 77
-96 123 -102 270 l-5 121 48 6 c26 4 90 7 141 7 83 0 126 -8 386 -74 387 -98
368 -96 446 -49 83 49 91 64 59 112 -40 61 -82 97 -164 141 -115 62 -225 144
-307 231 -80 83 -128 158 -170 263 -41 103 -43 154 -11 269 15 53 31 97 36 97
14 0 183 -62 219 -80 19 -10 81 -58 137 -106 106 -93 275 -201 356 -228 109
-36 173 -12 326 126 280 253 340 297 526 389 204 100 426 162 640 178 55 5
107 9 116 10 9 0 74 -4 145 -9z M39584 22282 c-6 -4 -76 -140 -155 -302 -265
-539 -1096 -2060 -1397 -2560 -58 -96 -223 -364 -367 -595 -144 -231 -271
-436 -282 -455 -28 -46 -56 -145 -48 -169 9 -30 513 -378 820 -566 318 -195
476 -316 665 -511 348 -359 552 -766 670 -1339 60 -295 123 -510 241 -830 92
-246 168 -367 292 -461 221 -167 418 -182 1005 -75 503 93 749 144 787 164 27
16 44 34 54 61 14 36 13 46 -13 150 -68 280 -46 573 57 745 41 69 141 162 209
195 55 27 170 56 223 56 62 0 173 -31 254 -71 152 -75 260 -198 424 -481 38
-64 75 -119 84 -122 19 -8 378 197 387 220 3 8 -14 54 -38 102 -51 101 -164
485 -191 650 -35 208 -9 335 90 441 94 101 197 146 357 156 118 8 134 11 142
31 9 23 -1 37 -145 211 -456 552 -786 1075 -1087 1723 -221 476 -421 808 -721
1200 -195 254 -327 400 -796 880 -110 113 -354 367 -540 565 -409 433 -931
972 -954 985 -10 5 -22 6 -27 2z"/>
</g>
</g>




<path fill="#4483BC" opacity="1.000000" stroke="none" 
	d="
M630.040955,840.936584 
	C623.223572,836.562012 616.534302,831.971008 609.567749,827.848511 
	C569.066711,803.881531 542.704895,769.298950 530.943909,723.668274 
	C527.074829,708.656921 524.322815,693.480652 525.080566,677.903137 
	C525.434570,670.625549 526.366577,663.376038 527.034546,655.694824 
	C528.842163,654.487366 530.651917,653.698975 533.065491,652.647583 
	C533.677673,658.892639 534.033386,664.641907 534.831055,670.329285 
	C542.232849,723.102539 567.188049,765.236084 611.222107,795.670593 
	C622.178772,803.243347 633.513123,810.272461 644.417114,817.917725 
	C657.147461,826.843567 666.445984,839.035522 675.570923,851.428650 
	C682.759949,861.192566 689.679688,871.440247 698.345459,879.783752 
	C743.890198,923.634521 814.872742,914.782715 849.228943,861.720459 
	C863.623901,839.487854 869.768005,815.009705 871.091064,788.513855 
	C871.296997,797.286377 871.466064,806.501282 871.551208,815.716919 
	C871.564758,817.187500 871.201233,818.661499 870.998169,820.897095 
	C870.969788,822.100708 870.955322,822.541138 870.698975,823.283936 
	C869.306763,830.390808 868.156494,837.195374 866.991943,844.236816 
	C866.977661,844.473694 866.955261,844.947693 866.717896,845.232788 
	C863.643921,854.008789 860.807373,862.499573 857.719666,871.218384 
	C853.632446,878.292786 849.796387,885.139221 845.675537,892.159241 
	C843.924316,894.086853 842.367554,895.774048 841.010254,897.608887 
	C838.248047,901.342834 835.593506,905.156494 832.538757,908.952759 
	C831.029785,909.550110 829.801086,910.019348 828.735779,910.732422 
	C822.139160,915.147705 815.579346,919.617798 808.748535,924.175781 
	C807.993896,924.541382 807.498169,924.801025 806.693604,925.216919 
	C799.244690,928.228333 792.104553,931.083435 784.585205,933.945801 
	C782.791748,934.276794 781.377563,934.600403 779.518311,934.939209 
	C777.252991,935.010498 775.430664,935.153687 773.612976,935.108459 
	C762.775513,934.839111 751.862244,935.226257 741.122498,934.045715 
	C728.491028,932.657227 717.154724,926.873840 705.855591,920.669434 
	C703.453979,918.925232 701.228394,917.461365 698.789368,915.745483 
	C694.398315,911.989502 690.220642,908.485596 685.891113,904.712463 
	C684.833923,903.624939 683.928650,902.806702 682.857910,901.696899 
	C677.120483,893.937927 671.548523,886.470459 665.862183,878.720337 
	C665.170410,877.621399 664.593018,876.805115 663.893127,875.787964 
	C663.579407,875.331848 663.342468,875.130188 662.994324,874.642761 
	C660.960388,871.849487 658.991943,869.395752 656.975769,866.633667 
	C656.291138,865.548584 655.654358,864.771729 654.857422,863.700073 
	C647.751404,854.518799 640.126465,846.377625 630.040955,840.936584 
z"/>



<path fill="#4282B8" opacity="1.000000" stroke="none" 
	d="
M989.735840,977.933350 
	C986.961609,983.928162 984.346680,989.681396 981.355774,995.232056 
	C972.691467,1011.311890 964.099182,1027.437622 955.044861,1043.297729 
	C948.540405,1054.691406 941.324341,1065.678223 934.473877,1076.875977 
	C933.802063,1077.973999 933.468689,1079.279053 932.965942,1080.876221 
	C928.386719,1078.543823 923.688538,1076.011353 919.338806,1072.979126 
	C918.148193,1072.149170 917.261780,1069.697632 917.509155,1068.200562 
	C918.456238,1062.469482 920.272156,1056.875366 921.113708,1051.134888 
	C922.462646,1041.932129 926.496887,1034.686646 933.094727,1027.906250 
	C950.139404,1010.390137 963.419556,990.036743 974.845154,968.467041 
	C975.986572,966.312073 977.420288,964.311951 979.018433,962.292664 
	C979.318481,962.345337 979.515381,962.740723 979.774475,963.165405 
	C980.316345,963.897339 980.599121,964.204712 980.881897,964.512024 
	C983.829041,968.874390 986.776184,973.236755 989.735840,977.933350 
z"/>









<path fill="#4685BC" opacity="1.000000" stroke="none" 
	d="
M659.972107,1166.007935 
	C664.417603,1173.780518 668.856934,1181.556763 673.312256,1189.323730 
	C674.718201,1191.774902 676.284241,1194.140991 677.573975,1196.650513 
	C681.613647,1204.509766 680.573242,1210.950806 672.984558,1215.640625 
	C666.282898,1219.782471 658.938904,1223.650757 651.358704,1225.450317 
	C633.940063,1229.585449 616.208374,1232.406372 598.591919,1235.697510 
	C596.975159,1235.999390 595.273926,1235.883423 593.611267,1235.899536 
	C579.019104,1236.041626 573.165771,1232.180786 568.089355,1218.413696 
	C561.535339,1200.639282 555.300781,1182.747070 548.778442,1164.960693 
	C546.720764,1159.349365 544.180664,1153.914795 541.573364,1147.894043 
	C541.180237,1147.257568 541.075012,1147.126465 540.954834,1146.745483 
	C540.855530,1146.351562 540.771179,1146.207520 540.619751,1145.726074 
	C538.602173,1141.179932 536.834534,1136.872559 534.634827,1132.798584 
	C533.244202,1130.222900 533.855347,1128.803345 535.840942,1126.874756 
	C542.511963,1120.394775 549.071411,1113.785278 555.373840,1106.949097 
	C557.480530,1104.663940 559.237854,1104.149048 562.215027,1104.860840 
	C585.275696,1110.374390 608.750244,1112.445557 632.402466,1112.821045 
	C641.822693,1112.970459 641.234680,1113.104004 644.182739,1122.147827 
	C648.996216,1136.914429 654.664490,1151.402466 659.972107,1166.007935 
z"/>
<path fill="#13304A" opacity="1.000000" stroke="none" 
	d="
M749.015076,1095.048340 
	C749.628357,1096.584595 750.891479,1098.180176 750.757385,1099.648193 
	C748.791382,1121.171143 746.849670,1142.700684 744.460632,1164.179443 
	C742.733337,1179.708130 740.256042,1195.152100 738.302185,1210.657715 
	C737.230164,1219.164917 738.096497,1227.508179 742.388977,1235.645264 
	C721.327209,1235.645264 700.974976,1235.645264 679.221558,1235.645264 
	C692.928772,1227.169189 701.625366,1216.867920 699.432007,1199.958984 
	C698.756226,1197.285156 698.657349,1195.150635 697.714233,1193.497559 
	C692.258484,1183.933838 686.603455,1174.483887 681.015930,1164.995361 
	C680.574768,1164.019775 680.133667,1163.044312 679.369141,1161.541260 
	C670.884583,1145.687744 666.045837,1129.225708 662.057129,1112.367920 
	C673.435364,1110.881226 684.607056,1110.116699 695.463928,1107.846436 
	C713.421082,1104.091187 731.175293,1099.365112 749.015076,1095.048340 
z"/>
<path fill="#E9F3FC" opacity="1.000000" stroke="none" 
	d="
M749.015747,1094.648193 
	C731.175293,1099.365112 713.421082,1104.091187 695.463928,1107.846436 
	C684.607056,1110.116699 673.435364,1110.881226 662.057129,1112.367920 
	C666.045837,1129.225708 670.884583,1145.687744 679.099426,1161.358643 
	C677.710327,1161.534302 676.223328,1161.532715 674.832458,1161.166138 
	C669.046326,1159.641235 664.744202,1162.388794 660.321045,1165.951538 
	C654.664490,1151.402466 648.996216,1136.914429 644.182739,1122.147827 
	C641.234680,1113.104004 641.822693,1112.970459 632.402466,1112.821045 
	C608.750244,1112.445557 585.275696,1110.374390 562.215027,1104.860840 
	C559.237854,1104.149048 557.480530,1104.663940 555.373840,1106.949097 
	C549.071411,1113.785278 542.511963,1120.394775 535.840942,1126.874756 
	C533.855347,1128.803345 533.244202,1130.222900 534.634827,1132.798584 
	C536.834534,1136.872559 538.602173,1141.179932 540.541992,1145.853027 
	C540.499878,1146.643799 540.646057,1146.869751 540.969849,1146.995361 
	C541.075012,1147.126465 541.180237,1147.257568 541.363098,1147.628662 
	C534.343750,1147.244019 527.246704,1146.619263 519.517334,1145.656006 
	C517.069946,1141.531250 515.588379,1145.112793 513.965942,1145.126953 
	C513.987305,1140.698608 510.843658,1140.135986 508.001801,1139.184814 
	C506.668213,1138.738281 505.322571,1138.232910 504.114532,1137.527832 
	C502.068237,1136.333618 500.126801,1134.959839 498.141235,1133.661621 
	C498.235809,1133.521973 498.330414,1133.382324 498.879761,1133.016357 
	C499.558563,1132.539062 499.782593,1132.288086 500.006592,1132.037109 
	C506.928772,1126.100464 514.239014,1120.552856 520.678589,1114.132080 
	C529.462524,1105.373779 537.582703,1095.949707 546.056519,1086.444336 
	C546.125549,1086.077759 546.046814,1086.100586 546.292847,1086.012573 
	C546.701111,1085.624634 546.863342,1085.324707 547.014038,1085.012451 
	C547.002441,1085.000000 547.031799,1085.019531 547.282654,1084.857178 
	C547.743713,1084.148438 547.953918,1083.602051 548.118408,1083.048096 
	C548.072693,1083.040527 548.066406,1083.132935 548.330811,1083.058228 
	C548.760803,1082.666504 548.926514,1082.349487 549.057190,1082.027344 
	C549.022156,1082.022095 549.042114,1082.089966 549.253418,1081.992676 
	C549.733398,1081.678467 549.836243,1081.400269 549.942017,1080.775146 
	C551.090515,1079.061035 552.070007,1077.632446 553.257202,1076.067627 
	C553.722595,1075.693848 553.855347,1075.399780 553.967346,1074.921387 
	C554.071533,1074.793457 554.085999,1074.463745 554.327637,1074.283936 
	C554.733643,1073.744995 554.898071,1073.385864 555.286499,1072.878418 
	C555.707520,1072.239990 555.904541,1071.749756 556.369629,1071.034912 
	C558.458435,1067.335693 560.279236,1063.860962 562.308960,1060.209717 
	C562.644165,1059.699341 562.770447,1059.365723 562.993652,1058.867920 
	C563.090454,1058.703857 563.115356,1058.323730 563.357300,1058.074463 
	C564.089355,1056.548950 564.579468,1055.272583 565.145386,1053.889771 
	C565.221191,1053.783203 565.138245,1053.535156 565.398010,1053.280640 
	C566.144104,1051.704956 566.630432,1050.383789 567.084290,1049.034424 
	C567.051819,1049.006348 567.071228,1049.090088 567.312378,1048.856934 
	C567.761658,1047.765503 567.969727,1046.906982 568.137695,1046.050293 
	C568.097534,1046.052124 568.131897,1046.124878 568.385681,1045.938965 
	C568.798584,1045.152222 568.957703,1044.551270 569.201355,1043.863525 
	C569.285889,1043.776733 569.285339,1043.534302 569.517029,1043.230957 
	C572.816711,1030.911377 575.975525,1018.917297 578.911072,1006.868896 
	C580.210205,1001.536987 583.207275,998.670776 587.645996,999.233459 
	C592.332336,999.827515 594.973999,1003.779175 594.509705,1009.077820 
	C592.247986,1034.885620 583.872070,1058.763916 571.826233,1081.501709 
	C571.095459,1082.881104 570.480896,1084.322266 569.867126,1085.618652 
	C570.600525,1086.175171 570.834290,1086.467285 571.129028,1086.555054 
	C572.083557,1086.839966 573.054565,1087.077637 574.029663,1087.284424 
	C611.641174,1095.254272 649.436707,1094.928223 687.278198,1089.421753 
	C699.116516,1087.699097 710.824097,1085.077515 722.919312,1082.876953 
	C723.819580,1082.628906 724.392151,1082.371338 725.182983,1082.031250 
	C725.401367,1081.948608 725.868286,1081.951416 726.150024,1081.945312 
	C726.929138,1081.712158 727.426453,1081.484985 728.224365,1081.145996 
	C728.947571,1080.990723 729.370300,1080.947266 729.792969,1080.903931 
	C738.630676,1085.738403 746.669495,1081.891113 754.943481,1078.905029 
	C757.747498,1077.893066 761.099487,1078.185913 764.165466,1078.397461 
	C764.528137,1078.422729 765.276184,1081.922363 764.765015,1083.449707 
	C763.976074,1085.806885 762.253662,1087.851440 760.802185,1090.233887 
	C757.195068,1091.683838 750.941101,1086.354004 749.015747,1094.648193 
z"/>
<path fill="#133049" opacity="1.000000" stroke="none" 
	d="
M513.963989,1145.540161 
	C515.588379,1145.112793 517.069946,1141.531250 519.107727,1145.654297 
	C531.205505,1176.109497 543.080566,1206.227661 555.227539,1237.035522 
	C521.349121,1237.970215 487.730865,1238.897583 453.700562,1239.836304 
	C461.651520,1221.603516 465.219635,1201.956177 476.966614,1185.027710 
	C483.343323,1176.892700 489.550751,1169.411499 496.059631,1161.769531 
	C502.228699,1156.252441 508.096344,1150.896362 513.963989,1145.540161 
z"/>

<path fill="#ECF5FC" opacity="1.000000" stroke="none" 
	d="
M495.758179,1161.930298 
	C489.550751,1169.411499 483.343323,1176.892700 476.971527,1184.684082 
	C471.902924,1181.205811 466.998749,1177.417480 462.034485,1173.282715 
	C467.025055,1166.362793 472.075653,1159.789429 477.852570,1153.076782 
	C481.716003,1154.019409 485.029358,1154.763184 487.940002,1156.279907 
	C490.761383,1157.750244 493.168884,1160.014648 495.758179,1161.930298 
z"/>
<path fill="#E9F3FC" opacity="1.000000" stroke="none" 
	d="
M680.676147,1165.090576 
	C686.603455,1174.483887 692.258484,1183.933838 697.714233,1193.497559 
	C698.657349,1195.150635 698.756226,1197.285156 699.215454,1199.600342 
	C695.803406,1198.664795 692.226868,1197.671631 689.085327,1195.904907 
	C684.673645,1193.423950 682.220886,1189.595947 681.851990,1184.202026 
	C681.644531,1181.169678 680.458313,1177.874390 678.750061,1175.348877 
	C675.900574,1171.136230 678.444397,1168.342041 680.676147,1165.090576 
z"/>

<path fill="#E8F2FC" opacity="1.000000" stroke="none" 
	d="
M980.795532,964.209045 
	C980.599121,964.204712 980.316345,963.897339 979.963867,963.278809 
	C980.165894,963.280457 980.437561,963.593262 980.795532,964.209045 
z"/>
<path fill="#E9F3FC" opacity="1.000000" stroke="none" 
	d="
M779.186646,750.288940 
	C784.464172,728.192078 794.940918,709.739990 812.490540,695.403381 
	C812.893188,695.962646 813.347473,696.310425 813.405151,696.714661 
	C815.482849,711.276245 821.225037,724.573303 827.810852,737.509216 
	C833.093628,747.885925 832.279175,758.901184 831.788025,769.836365 
	C831.156616,783.895264 828.499390,797.669556 822.868530,810.619751 
	C814.588928,829.661743 801.947510,844.671692 780.707886,849.176758 
	C756.736511,854.261292 735.761902,848.425781 719.737671,828.841797 
	C715.730774,823.944702 711.548767,819.110046 708.186829,813.780212 
	C695.556702,793.756775 678.384583,778.609680 658.717346,765.829651 
	C643.172485,755.728394 628.215210,744.771606 617.605713,729.108704 
	C596.774841,698.356018 588.287048,665.133545 598.490173,628.539917 
	C610.459839,585.610840 655.285034,544.246460 718.140991,560.686707 
	C764.102173,572.708069 792.299988,603.801941 806.503601,648.404480 
	C806.591675,648.680908 806.448364,649.031006 806.347290,649.934937 
	C804.998962,648.946899 803.859375,648.172729 802.785645,647.316162 
	C775.250610,625.349792 744.073975,613.309265 708.658752,614.287476 
	C697.961304,614.582886 687.305664,617.342957 676.694763,619.317261 
	C672.838989,620.034729 669.553162,622.769836 670.201233,626.929260 
	C670.648804,629.802429 672.705261,633.188293 675.088196,634.752686 
	C676.961426,635.982605 680.574402,635.287048 683.171204,634.567932 
	C695.852417,631.056274 708.748779,629.818298 721.782104,631.043518 
	C750.257019,633.720337 774.673523,645.807617 796.384705,664.738220 
	C795.069641,664.738220 793.744995,664.842712 792.440918,664.722839 
	C762.105103,661.934631 735.171997,670.593018 711.174744,688.970642 
	C705.197632,693.548096 704.775696,699.659485 709.942200,703.659302 
	C713.967773,706.775757 717.664917,705.596008 721.246094,702.652344 
	C734.133057,692.059692 748.702209,684.642395 765.281006,682.740906 
	C776.428833,681.462341 787.816284,682.262939 799.096863,682.183167 
	C799.662598,682.179138 800.231750,682.649902 800.707886,682.859375 
	C795.118652,689.022400 789.312866,694.750916 784.288208,701.097839 
	C771.923279,716.716797 764.703552,734.645996 761.698242,754.299683 
	C760.895081,759.552307 763.163025,763.145813 767.784912,764.045715 
	C773.040161,765.068909 776.503418,762.843628 777.749817,757.552124 
	C778.283569,755.285828 778.660217,752.982483 779.186646,750.288940 
z"/>
<path fill="#112F4D" opacity="1.000000" stroke="none" 
	d="
M977.417908,626.351685 
	C1002.951538,609.567566 1035.222046,621.925598 1042.816772,651.073303 
	C1044.547729,657.716614 1042.281616,662.733154 1036.772949,664.452637 
	C1031.487305,666.102356 1026.742676,662.983276 1024.294800,656.616211 
	C1023.053650,653.387817 1021.739441,650.023804 1019.688416,647.301025 
	C1013.396851,638.948853 1003.524475,635.707886 994.454712,638.520447 
	C985.008911,641.449646 977.525757,651.071960 977.006836,661.351746 
	C976.840393,664.648682 977.157532,668.007385 977.603760,671.290161 
	C978.511658,677.968262 975.243530,682.834717 969.100037,683.561707 
	C963.575745,684.215393 959.610840,680.350830 958.984253,673.701721 
	C958.846375,672.238525 958.708923,670.775391 958.646851,670.116333 
	C951.803345,667.988342 945.411560,666.301697 939.276184,663.946777 
	C936.779175,662.988342 934.144043,660.976013 932.850159,658.712402 
	C931.666687,656.642090 932.207581,653.586121 931.988525,650.964478 
	C934.425171,650.902649 936.951538,650.397156 939.280212,650.868652 
	C944.594849,651.944580 949.768494,653.747986 955.099304,654.691528 
	C956.509644,654.941101 958.282898,653.140442 959.889587,652.281250 
	C958.736633,650.949951 957.840332,649.119385 956.387085,648.372498 
	C949.610413,644.889771 943.940002,640.389404 942.089661,632.671814 
	C941.601990,630.637939 942.860046,628.185486 943.316467,625.925232 
	C945.416809,626.699158 947.695312,627.180969 949.570007,628.324768 
	C951.665710,629.603455 953.238525,631.726746 955.311707,633.057129 
	C963.568115,638.354980 964.459839,638.174683 971.423828,631.418884 
	C973.211487,629.684753 975.216125,628.174316 977.417908,626.351685 
z"/>















<path fill="#E6F1FA" opacity="1.000000" stroke="none" 
	d="
M496.059601,1161.769531 
	C493.168884,1160.014648 490.761383,1157.750244 487.940002,1156.279907 
	C485.029358,1154.763184 481.716003,1154.019409 478.128784,1152.905518 
	C484.319153,1146.547119 490.959595,1140.220947 497.870667,1133.778076 
	C500.126801,1134.959839 502.068237,1136.333618 504.114532,1137.527832 
	C505.322571,1138.232910 506.668213,1138.738281 508.001801,1139.184814 
	C510.843658,1140.135986 513.987305,1140.698608 513.965942,1145.126953 
	C508.096344,1150.896362 502.228699,1156.252441 496.059601,1161.769531 
z"/>

<path fill="#E6F1FA" opacity="1.000000" stroke="none" 
	d="
M499.759766,1132.126831 
	C499.782593,1132.288086 499.558563,1132.539062 499.112976,1132.918213 
	C499.098572,1132.769897 499.305756,1132.493164 499.759766,1132.126831 
z"/>


























































<path fill="#E6F1FA" opacity="1.000000" stroke="none" 
	d="
M540.954834,1146.745483 
	C540.646057,1146.869751 540.499878,1146.643799 540.609131,1146.190430 
	C540.771179,1146.207520 540.855530,1146.351562 540.954834,1146.745483 
z"/>





<path fill="#E6F1FA" opacity="1.000000" stroke="none" 
	d="
M726.150024,1081.945312 
	C726.365662,1081.707397 726.862976,1081.463257 727.642090,1081.238525 
	C727.426453,1081.484985 726.929138,1081.712158 726.150024,1081.945312 
z"/>

<path fill="#E6F1FA" opacity="1.000000" stroke="none" 
	d="
M722.919312,1082.876953 
	C723.168823,1082.607666 723.746155,1082.347778 724.644043,1082.100952 
	C724.392151,1082.371338 723.819580,1082.628906 722.919312,1082.876953 
z"/>





































































































































</svg>